<mxfile host="app.diagrams.net" modified="2021-08-20T08:52:50.040Z" agent="5.0 (Windows NT 10.0; Win64; x64) AppleWebKit/537.36 (KHTML, like Gecko) Chrome/92.0.4515.131 Safari/537.36" etag="3vHSts5B0_d2NXz-YRFB" version="14.9.7" type="github" pages="2">
  <diagram id="rkuZso5da_5lEpxiVeEb" name="Page-1">
    <mxGraphModel dx="1422" dy="761" grid="0" gridSize="10" guides="1" tooltips="1" connect="1" arrows="1" fold="1" page="1" pageScale="1" pageWidth="827" pageHeight="1169" math="0" shadow="0">
      <root>
        <mxCell id="0" />
        <mxCell id="1" parent="0" />
        <mxCell id="qdJ-WwyAj1YOE34NU1ZS-5" style="edgeStyle=orthogonalEdgeStyle;rounded=0;orthogonalLoop=1;jettySize=auto;html=1;exitX=0.5;exitY=1;exitDx=0;exitDy=0;" edge="1" parent="1" source="qdJ-WwyAj1YOE34NU1ZS-1" target="qdJ-WwyAj1YOE34NU1ZS-2">
          <mxGeometry relative="1" as="geometry" />
        </mxCell>
        <mxCell id="qdJ-WwyAj1YOE34NU1ZS-1" value="AI假人" style="rounded=0;whiteSpace=wrap;html=1;" vertex="1" parent="1">
          <mxGeometry x="380" y="139" width="120" height="60" as="geometry" />
        </mxCell>
        <mxCell id="qdJ-WwyAj1YOE34NU1ZS-16" style="edgeStyle=orthogonalEdgeStyle;rounded=0;orthogonalLoop=1;jettySize=auto;html=1;exitX=1;exitY=0.75;exitDx=0;exitDy=0;entryX=1;entryY=0.5;entryDx=0;entryDy=0;" edge="1" parent="1" source="qdJ-WwyAj1YOE34NU1ZS-2" target="qdJ-WwyAj1YOE34NU1ZS-11">
          <mxGeometry relative="1" as="geometry">
            <Array as="points">
              <mxPoint x="582" y="370" />
              <mxPoint x="582" y="550" />
            </Array>
          </mxGeometry>
        </mxCell>
        <mxCell id="qdJ-WwyAj1YOE34NU1ZS-2" value="公屏" style="rounded=0;whiteSpace=wrap;html=1;" vertex="1" parent="1">
          <mxGeometry x="380" y="325" width="120" height="60" as="geometry" />
        </mxCell>
        <mxCell id="qdJ-WwyAj1YOE34NU1ZS-4" style="edgeStyle=orthogonalEdgeStyle;rounded=0;orthogonalLoop=1;jettySize=auto;html=1;exitX=0.5;exitY=1;exitDx=0;exitDy=0;entryX=1.008;entryY=0.617;entryDx=0;entryDy=0;entryPerimeter=0;" edge="1" parent="1" source="qdJ-WwyAj1YOE34NU1ZS-3" target="qdJ-WwyAj1YOE34NU1ZS-2">
          <mxGeometry relative="1" as="geometry" />
        </mxCell>
        <mxCell id="qdJ-WwyAj1YOE34NU1ZS-19" style="edgeStyle=orthogonalEdgeStyle;rounded=0;orthogonalLoop=1;jettySize=auto;html=1;exitX=0;exitY=0.75;exitDx=0;exitDy=0;entryX=1;entryY=0.75;entryDx=0;entryDy=0;" edge="1" parent="1" source="qdJ-WwyAj1YOE34NU1ZS-3" target="qdJ-WwyAj1YOE34NU1ZS-1">
          <mxGeometry relative="1" as="geometry" />
        </mxCell>
        <mxCell id="qdJ-WwyAj1YOE34NU1ZS-3" value="检测AI" style="rounded=0;whiteSpace=wrap;html=1;" vertex="1" parent="1">
          <mxGeometry x="644" y="139" width="120" height="60" as="geometry" />
        </mxCell>
        <mxCell id="qdJ-WwyAj1YOE34NU1ZS-6" value="发言" style="text;html=1;strokeColor=none;fillColor=none;align=center;verticalAlign=middle;whiteSpace=wrap;rounded=0;" vertex="1" parent="1">
          <mxGeometry x="386" y="252" width="40" height="20" as="geometry" />
        </mxCell>
        <mxCell id="qdJ-WwyAj1YOE34NU1ZS-7" value="鉴别" style="text;html=1;strokeColor=none;fillColor=none;align=center;verticalAlign=middle;whiteSpace=wrap;rounded=0;" vertex="1" parent="1">
          <mxGeometry x="610" y="332" width="40" height="20" as="geometry" />
        </mxCell>
        <mxCell id="qdJ-WwyAj1YOE34NU1ZS-9" style="edgeStyle=orthogonalEdgeStyle;rounded=0;orthogonalLoop=1;jettySize=auto;html=1;exitX=0.5;exitY=1;exitDx=0;exitDy=0;entryX=0;entryY=0.5;entryDx=0;entryDy=0;" edge="1" parent="1" source="qdJ-WwyAj1YOE34NU1ZS-8" target="qdJ-WwyAj1YOE34NU1ZS-2">
          <mxGeometry relative="1" as="geometry" />
        </mxCell>
        <mxCell id="qdJ-WwyAj1YOE34NU1ZS-8" value="用户" style="rounded=0;whiteSpace=wrap;html=1;" vertex="1" parent="1">
          <mxGeometry x="174" y="139" width="120" height="60" as="geometry" />
        </mxCell>
        <mxCell id="qdJ-WwyAj1YOE34NU1ZS-10" value="发言" style="text;html=1;strokeColor=none;fillColor=none;align=center;verticalAlign=middle;whiteSpace=wrap;rounded=0;" vertex="1" parent="1">
          <mxGeometry x="285" y="330" width="40" height="20" as="geometry" />
        </mxCell>
        <mxCell id="qdJ-WwyAj1YOE34NU1ZS-12" style="edgeStyle=orthogonalEdgeStyle;rounded=0;orthogonalLoop=1;jettySize=auto;html=1;exitX=0.5;exitY=0;exitDx=0;exitDy=0;" edge="1" parent="1" source="qdJ-WwyAj1YOE34NU1ZS-11" target="qdJ-WwyAj1YOE34NU1ZS-2">
          <mxGeometry relative="1" as="geometry" />
        </mxCell>
        <mxCell id="qdJ-WwyAj1YOE34NU1ZS-11" value="外挂" style="rounded=0;whiteSpace=wrap;html=1;" vertex="1" parent="1">
          <mxGeometry x="380" y="520" width="120" height="60" as="geometry" />
        </mxCell>
        <mxCell id="qdJ-WwyAj1YOE34NU1ZS-13" value="发言" style="text;html=1;strokeColor=none;fillColor=none;align=center;verticalAlign=middle;whiteSpace=wrap;rounded=0;" vertex="1" parent="1">
          <mxGeometry x="444" y="457" width="40" height="20" as="geometry" />
        </mxCell>
        <mxCell id="qdJ-WwyAj1YOE34NU1ZS-15" value="识别" style="text;html=1;strokeColor=none;fillColor=none;align=center;verticalAlign=middle;whiteSpace=wrap;rounded=0;" vertex="1" parent="1">
          <mxGeometry x="596" y="457" width="40" height="20" as="geometry" />
        </mxCell>
        <mxCell id="qdJ-WwyAj1YOE34NU1ZS-18" value="" style="endArrow=classic;html=1;entryX=0;entryY=0.25;entryDx=0;entryDy=0;exitX=1;exitY=0.25;exitDx=0;exitDy=0;" edge="1" parent="1" source="qdJ-WwyAj1YOE34NU1ZS-1" target="qdJ-WwyAj1YOE34NU1ZS-3">
          <mxGeometry width="50" height="50" relative="1" as="geometry">
            <mxPoint x="387" y="415" as="sourcePoint" />
            <mxPoint x="437" y="365" as="targetPoint" />
          </mxGeometry>
        </mxCell>
        <mxCell id="qdJ-WwyAj1YOE34NU1ZS-20" value="对抗训练" style="text;html=1;strokeColor=none;fillColor=none;align=center;verticalAlign=middle;whiteSpace=wrap;rounded=0;" vertex="1" parent="1">
          <mxGeometry x="536" y="124" width="74" height="20" as="geometry" />
        </mxCell>
      </root>
    </mxGraphModel>
  </diagram>
  <diagram id="nxajeBFACLaarHDvv9cp" name="Page-2">
    <mxGraphModel dx="1422" dy="762" grid="0" gridSize="10" guides="1" tooltips="1" connect="1" arrows="1" fold="1" page="1" pageScale="1" pageWidth="827" pageHeight="1169" math="0" shadow="0">
      <root>
        <mxCell id="VfOG8BiUPgnku0e76I5q-0" />
        <mxCell id="VfOG8BiUPgnku0e76I5q-1" parent="VfOG8BiUPgnku0e76I5q-0" />
        <mxCell id="8llSnQ3Y_7pHN2fb3V6K-0" style="edgeStyle=orthogonalEdgeStyle;rounded=0;orthogonalLoop=1;jettySize=auto;html=1;exitX=0.5;exitY=1;exitDx=0;exitDy=0;" edge="1" parent="VfOG8BiUPgnku0e76I5q-1" source="8llSnQ3Y_7pHN2fb3V6K-1" target="8llSnQ3Y_7pHN2fb3V6K-3">
          <mxGeometry relative="1" as="geometry" />
        </mxCell>
        <mxCell id="8llSnQ3Y_7pHN2fb3V6K-1" value="AI假人" style="rounded=0;whiteSpace=wrap;html=1;" vertex="1" parent="VfOG8BiUPgnku0e76I5q-1">
          <mxGeometry x="380" y="139" width="120" height="60" as="geometry" />
        </mxCell>
        <mxCell id="8llSnQ3Y_7pHN2fb3V6K-3" value="公屏" style="rounded=0;whiteSpace=wrap;html=1;" vertex="1" parent="VfOG8BiUPgnku0e76I5q-1">
          <mxGeometry x="380" y="325" width="120" height="60" as="geometry" />
        </mxCell>
        <mxCell id="8llSnQ3Y_7pHN2fb3V6K-20" style="edgeStyle=orthogonalEdgeStyle;rounded=0;orthogonalLoop=1;jettySize=auto;html=1;exitX=0;exitY=0.5;exitDx=0;exitDy=0;entryX=0;entryY=0.5;entryDx=0;entryDy=0;" edge="1" parent="VfOG8BiUPgnku0e76I5q-1" source="8llSnQ3Y_7pHN2fb3V6K-6" target="8llSnQ3Y_7pHN2fb3V6K-10">
          <mxGeometry relative="1" as="geometry">
            <Array as="points">
              <mxPoint x="118" y="529" />
              <mxPoint x="118" y="169" />
            </Array>
          </mxGeometry>
        </mxCell>
        <mxCell id="8llSnQ3Y_7pHN2fb3V6K-22" style="edgeStyle=orthogonalEdgeStyle;rounded=0;orthogonalLoop=1;jettySize=auto;html=1;exitX=1;exitY=0.5;exitDx=0;exitDy=0;entryX=1;entryY=0.5;entryDx=0;entryDy=0;" edge="1" parent="VfOG8BiUPgnku0e76I5q-1" source="8llSnQ3Y_7pHN2fb3V6K-6" target="8llSnQ3Y_7pHN2fb3V6K-1">
          <mxGeometry relative="1" as="geometry">
            <Array as="points">
              <mxPoint x="625" y="529" />
              <mxPoint x="625" y="169" />
            </Array>
          </mxGeometry>
        </mxCell>
        <mxCell id="8llSnQ3Y_7pHN2fb3V6K-6" value="服务器" style="rounded=0;whiteSpace=wrap;html=1;" vertex="1" parent="VfOG8BiUPgnku0e76I5q-1">
          <mxGeometry x="174" y="499" width="120" height="60" as="geometry" />
        </mxCell>
        <mxCell id="8llSnQ3Y_7pHN2fb3V6K-7" value="发言" style="text;html=1;strokeColor=none;fillColor=none;align=center;verticalAlign=middle;whiteSpace=wrap;rounded=0;" vertex="1" parent="VfOG8BiUPgnku0e76I5q-1">
          <mxGeometry x="386" y="252" width="40" height="20" as="geometry" />
        </mxCell>
        <mxCell id="8llSnQ3Y_7pHN2fb3V6K-9" style="edgeStyle=orthogonalEdgeStyle;rounded=0;orthogonalLoop=1;jettySize=auto;html=1;exitX=0.5;exitY=1;exitDx=0;exitDy=0;entryX=0;entryY=0.5;entryDx=0;entryDy=0;" edge="1" parent="VfOG8BiUPgnku0e76I5q-1" source="8llSnQ3Y_7pHN2fb3V6K-10" target="8llSnQ3Y_7pHN2fb3V6K-3">
          <mxGeometry relative="1" as="geometry" />
        </mxCell>
        <mxCell id="8llSnQ3Y_7pHN2fb3V6K-18" style="edgeStyle=orthogonalEdgeStyle;rounded=0;orthogonalLoop=1;jettySize=auto;html=1;exitX=0.5;exitY=1;exitDx=0;exitDy=0;" edge="1" parent="VfOG8BiUPgnku0e76I5q-1" source="8llSnQ3Y_7pHN2fb3V6K-10" target="8llSnQ3Y_7pHN2fb3V6K-6">
          <mxGeometry relative="1" as="geometry" />
        </mxCell>
        <mxCell id="8llSnQ3Y_7pHN2fb3V6K-10" value="用户" style="rounded=0;whiteSpace=wrap;html=1;" vertex="1" parent="VfOG8BiUPgnku0e76I5q-1">
          <mxGeometry x="174" y="139" width="120" height="60" as="geometry" />
        </mxCell>
        <mxCell id="8llSnQ3Y_7pHN2fb3V6K-11" value="找茬" style="text;html=1;strokeColor=none;fillColor=none;align=center;verticalAlign=middle;whiteSpace=wrap;rounded=0;" vertex="1" parent="VfOG8BiUPgnku0e76I5q-1">
          <mxGeometry x="285" y="330" width="40" height="20" as="geometry" />
        </mxCell>
        <mxCell id="8llSnQ3Y_7pHN2fb3V6K-19" value="上传记录" style="text;html=1;strokeColor=none;fillColor=none;align=center;verticalAlign=middle;whiteSpace=wrap;rounded=0;" vertex="1" parent="VfOG8BiUPgnku0e76I5q-1">
          <mxGeometry x="245" y="420" width="61" height="20" as="geometry" />
        </mxCell>
        <mxCell id="8llSnQ3Y_7pHN2fb3V6K-21" value="得到结果" style="text;html=1;strokeColor=none;fillColor=none;align=center;verticalAlign=middle;whiteSpace=wrap;rounded=0;" vertex="1" parent="VfOG8BiUPgnku0e76I5q-1">
          <mxGeometry x="125" y="354" width="62" height="20" as="geometry" />
        </mxCell>
        <mxCell id="8llSnQ3Y_7pHN2fb3V6K-23" value="和真实数据对抗训练" style="text;html=1;strokeColor=none;fillColor=none;align=center;verticalAlign=middle;whiteSpace=wrap;rounded=0;" vertex="1" parent="VfOG8BiUPgnku0e76I5q-1">
          <mxGeometry x="632" y="352" width="66" height="20" as="geometry" />
        </mxCell>
      </root>
    </mxGraphModel>
  </diagram>
</mxfile>
